<svg width="15" height="16" viewBox="0 0 15 16" fill="none" xmlns="http://www.w3.org/2000/svg">
<path d="M7.45491 9.01172C2.6474 9.01172 -0.000244141 11.286 -0.000244141 15.4156C-0.000244141 15.7382 0.261167 15.9996 0.583705 15.9996H14.3261C14.6486 15.9996 14.91 15.7382 14.91 15.4156C14.9101 11.2862 12.2624 9.01172 7.45491 9.01172ZM1.18891 14.8317C1.4186 11.744 3.52374 10.1796 7.45491 10.1796C11.3861 10.1796 13.4913 11.744 13.7211 14.8317H1.18891Z" fill="#030D15"/>
<path d="M7.45502 -0.000244141C5.24673 -0.000244141 3.58154 1.69845 3.58154 3.95092C3.58154 6.26936 5.31917 8.1553 7.45502 8.1553C9.59086 8.1553 11.3285 6.26936 11.3285 3.9511C11.3285 1.69845 9.6633 -0.000244141 7.45502 -0.000244141ZM7.45502 6.98761C5.96305 6.98761 4.74942 5.62545 4.74942 3.9511C4.74942 2.33826 5.88733 1.16763 7.45502 1.16763C8.99761 1.16763 10.1606 2.36413 10.1606 3.9511C10.1606 5.62545 8.94699 6.98761 7.45502 6.98761Z" fill="#030D15"/>
</svg>
